# xmcd
#
# Track frame offsets:
#	150
#	13822
#	32600
#	50637
#	64630
#	79265
#	92097
#	107195
#	134485
#	151550
#
# Disc length: 2318 seconds
#
# Revision: 1
# Processed by: cddbd v1.5.2PL0 Copyright (c) Steve Scherf et al.
# Submitted via: audiograbber 1.83.01
#
DISCID=7b090c0a
DTITLE=RUBBER DUCK - ....rastlos
DYEAR=1900
DGENRE=Country
TTITLE0=Diesel Lady
TTITLE1=Wieder auf der Strasse
TTITLE2=Zu lang geträumt
TTITLE3=Dann holt die Einsamkeit
TTITLE4=Ein schöner Tag
TTITLE5=Mein Laster
TTITLE6=So ist das Leben
TTITLE7=Die Zeit
TTITLE8=3 Teufelchen
TTITLE9=Elvira
EXTD=
EXTT0=
EXTT1=
EXTT2=
EXTT3=
EXTT4=
EXTT5=
EXTT6=
EXTT7=
EXTT8=
EXTT9=
PLAYORDER=
